<?xml version="1.0" standalone="no"?>
<!DOCTYPE svg PUBLIC "-//W3C//DTD SVG 20010904//EN"
 "http://www.w3.org/TR/2001/REC-SVG-20010904/DTD/svg10.dtd">
<svg version="1.0" xmlns="http://www.w3.org/2000/svg"
 width="260.000000pt" height="260.000000pt" viewBox="0 0 260.000000 260.000000"
 preserveAspectRatio="xMidYMid meet">
<metadata>
Created by potrace 1.11, written by Peter Selinger 2001-2013
</metadata>
<g transform="translate(0.000000,260.000000) scale(0.100000,-0.100000)"
fill="#000000" stroke="none">
<path d="M1311 2521 c-25 -68 -86 -138 -139 -160 -18 -8 -32 -17 -32 -21 0 -4
16 -16 37 -25 57 -27 109 -88 134 -156 l22 -61 20 54 c26 70 79 134 133 161
24 11 44 24 44 27 0 3 -20 16 -44 27 -56 28 -104 85 -131 158 l-22 57 -22 -61z"/>
<path d="M415 2399 c-3 -4 6 -32 19 -62 23 -48 32 -90 51 -222 3 -22 10 -65
15 -95 5 -30 12 -73 15 -95 4 -22 15 -98 26 -170 25 -158 26 -168 34 -225 3
-25 8 -52 10 -60 2 -8 7 -35 10 -60 3 -25 15 -103 26 -175 11 -71 25 -159 30
-195 5 -36 14 -90 19 -120 5 -30 12 -75 15 -100 3 -25 10 -67 15 -95 5 -27 12
-72 15 -98 4 -27 8 -57 10 -67 16 -82 58 -383 59 -415 0 -22 -4 -61 -8 -88 -6
-40 -5 -47 9 -47 23 0 303 158 313 177 5 8 4 32 -2 54 -9 36 -6 70 19 169 19
77 48 200 51 220 3 14 12 52 21 85 8 33 16 67 18 75 2 8 13 53 24 100 11 47
22 97 25 110 3 14 10 45 17 70 6 25 12 52 14 60 31 141 57 244 64 258 11 19
-3 69 137 -488 62 -249 107 -449 108 -482 1 -32 5 -60 8 -63 8 -8 290 84 307
100 12 12 12 20 0 60 -13 39 -13 60 -3 137 7 50 16 118 19 152 4 33 8 63 10
66 2 3 6 34 10 70 3 36 8 72 10 80 2 8 6 42 10 75 3 33 8 71 10 85 7 47 15
105 20 150 4 25 8 56 10 70 2 14 6 45 10 70 3 25 7 61 10 80 3 19 7 55 10 80
3 25 8 56 10 70 2 14 7 50 10 80 4 30 15 116 25 190 10 74 22 160 25 190 10
84 23 138 46 182 11 22 18 46 16 52 -6 15 -304 19 -313 5 -2 -5 3 -31 12 -59
16 -48 16 -115 0 -196 -2 -12 -7 -45 -11 -74 -4 -29 -8 -62 -11 -73 -2 -10 -6
-45 -10 -76 -3 -31 -8 -58 -9 -61 -2 -3 -6 -34 -10 -70 -4 -36 -9 -74 -11 -85
-2 -11 -6 -40 -9 -65 -3 -25 -8 -56 -10 -70 -2 -14 -7 -45 -10 -70 -4 -25 -8
-56 -10 -70 -2 -14 -6 -45 -10 -70 -3 -25 -10 -74 -15 -110 -10 -67 -14 -99
-26 -185 -6 -50 -10 -62 -18 -54 -5 5 -202 750 -209 789 -3 14 2 45 10 69 10
30 11 47 4 54 -13 13 -299 13 -312 0 -7 -7 -6 -26 4 -59 14 -47 13 -55 -24
-209 -21 -88 -40 -169 -43 -180 -2 -11 -17 -76 -34 -145 -17 -69 -52 -216 -78
-327 -27 -112 -51 -199 -55 -195 -5 5 -100 562 -114 667 -1 11 -5 36 -9 55 -3
19 -22 134 -41 255 -20 121 -37 229 -39 240 -37 227 -39 248 -27 289 7 22 13
52 14 66 l2 25 -163 1 c-89 1 -165 -2 -167 -7z"/>
</g>
</svg>
