<?xml version="1.0" encoding="UTF-8"?>
<svg width="132px" height="44px" viewBox="0 0 132 44" version="1.1" xmlns="http://www.w3.org/2000/svg" xmlns:xlink="http://www.w3.org/1999/xlink">
	<g id="8-2-Blog" fill="#000000">
		<path d="M29.558075,4.34120614 C29.6602826,4.1422276 29.7705362,3.92172024 29.8694819,3.71904483 C30.0580222,3.34065941 30.0427998,3.03360182 29.8379497,3.03338435 L29.4634786,3.03338435 L25.44172,3.03207958 C25.44172,3.03207958 25.1983791,3.03207958 24.8984978,3.03186211 C24.5953545,3.03186211 24.4909723,3.34500867 24.6603759,3.73100529 L24.8704451,4.21377289 C25.0398486,4.60194414 25.1298783,5.25194071 25.0711633,5.66925198 L22.1308476,26.6585522 C22.0712628,27.0758635 21.9375231,27.0856493 21.8307488,26.6761667 L18.3765684,13.5981662 C18.2704465,13.1904233 18.3339456,12.5521698 18.519224,12.1744367 L18.7047199,11.8023577 C18.8899982,11.4239723 18.6988484,11.1166973 18.2789275,11.1164798 L13.5834689,11.115175 C13.1622433,11.1149576 12.9728331,11.4202754 13.1607211,11.7984434 L13.331212,12.1450792 C13.5164903,12.5232472 13.591515,13.1612833 13.4925694,13.5709834 L9.55279434,30.1442648 C9.45363126,30.5580967 9.32054398,30.5520077 9.25334795,30.1366536 L5.27442953,5.74797355 C5.20397156,5.3328369 5.30226478,4.68631974 5.48580346,4.30836925 L5.78133552,3.71186855 C5.96465673,3.3337006 5.83026467,3.02642554 5.47232076,3.02620808 L4.82623853,3.02599061 L0.518951159,3.0249033 C0.518951159,3.0249033 0.355419069,3.02468584 0.15122142,3.02468584 C-0.0518889151,3.02468584 -0.0492793605,3.32434969 0.152308734,3.69251436 L0.434358096,4.20268229 C0.638555746,4.57106441 0.855366242,5.20910052 0.920387645,5.62488956 L6.3708774,40.9871817 C6.43394164,41.4047105 6.42589551,42.0823248 6.35456768,42.4955043 L6.18146723,43.5038797 C6.10622507,43.9174941 6.34869619,44.0868977 6.71664339,43.8803079 L11.4697297,41.2094288 C11.8376769,41.0024041 11.9762007,40.5653037 11.7811365,40.2325855 C11.5860723,39.9013895 11.5038713,39.2985824 11.6002074,38.8893173 L15.9168457,20.5121812 C16.0131817,20.1024811 16.1727995,20.1003065 16.275442,20.5080494 L20.1108349,35.8607117 C20.2136948,36.2725864 20.2489238,36.9419371 20.1895564,37.3594659 L20.165853,37.522998 C20.1062682,37.9403092 20.382446,38.1710374 20.7838825,38.0372977 L25.3730018,36.5009224 C25.7726986,36.3667478 25.9125272,35.9709653 25.6846261,35.6147611 L25.6567908,35.5690939 C25.4288897,35.214412 25.2912357,34.5839871 25.3460364,34.1666758 L29.1007506,5.77493895 C29.1555512,5.35523558 29.3686648,4.71719947 29.558075,4.34120614"></path>
		<path d="M36.9067983,20.1637404 L38.9583431,9.31277739 C39.0374996,8.89916298 39.1725441,8.89524865 39.2614864,9.30886306 L41.9084446,21.5281026 C41.997387,21.9395424 41.7388236,22.1894072 41.3295584,22.0830679 L37.5072133,21.1053547 C37.0957735,21.0007551 36.8282942,20.5810517 36.9067983,20.1637404 M42.1654858,4.03951988 L42.3237988,3.72267646 C42.5090771,3.34429104 42.3833836,3.03723345 42.0404446,3.03701598 L41.414369,3.03679852 L36.3211707,3.03527628 C36.3211707,3.03527628 36.0891378,3.03527628 35.801217,3.03527628 C35.513731,3.03505882 35.417395,3.34820537 35.5839716,3.73420199 L35.6829172,3.95318712 C35.8521033,4.34114091 35.9186469,4.99092001 35.8353587,5.40279471 L30.2472149,32.5571677 C30.1639266,32.9707821 29.9832149,33.6286074 29.8438212,34.0280867 L29.7298707,34.3649367 C29.5917818,34.7665906 29.8166384,35.0129761 30.2306877,34.9164226 L34.6345286,33.9019582 C35.0457509,33.8071444 35.2055861,33.4331082 34.9887756,33.0747294 L34.9848613,33.0627689 C34.7684857,32.7002583 34.658667,32.0700509 34.7367362,31.6564365 L35.8814608,25.5931363 C35.9599649,25.1793044 36.3524854,24.9416175 36.7576187,25.0577427 L42.3407609,26.7037192 C42.7461117,26.8218016 43.1482006,27.2517257 43.236273,27.6651227 L43.757749,30.0796131 C43.8477787,30.4932275 43.8475612,31.161056 43.7570966,31.5727132 L43.737525,31.6633953 C43.646408,32.0767922 43.9106254,32.3601464 44.3279367,32.2992567 L48.2590133,31.735158 C48.676977,31.676443 48.8246342,31.3417677 48.5862949,30.9929572 L48.4993098,30.8609572 C48.2631451,30.5104071 47.9919689,29.8958569 47.8897613,29.4841997 L42.0121744,5.46955582 C41.9114891,5.05789858 41.9808598,4.41768784 42.1654858,4.03951988"></path>
		<path d="M78.2183748,17.3420508 C77.7971492,17.3420508 77.4535579,16.9988943 77.4537753,16.5774513 L77.4566023,7.37029017 C77.4566023,6.94906456 77.7249515,6.60677798 78.0581047,6.60677798 L78.6546054,6.60699544 C78.6546054,6.60699544 86.2525411,6.4595556 86.3062545,11.9500585 C86.3062545,11.9500585 86.8794866,17.3446603 79.2071786,17.3422682 L78.2183748,17.3420508 Z M77.4579071,3.04756293 L77.1506321,3.04756293 L77.0449451,3.04734547 L73.3574269,3.04625816 C73.3574269,3.04625816 73.1651898,3.04625816 72.9244583,3.04625816 C72.6882937,3.04604069 72.633493,3.35918725 72.8024617,3.74518387 L73.0499344,4.31841603 C73.2217301,4.70289042 73.356992,5.35897594 73.3567746,5.78194125 L73.3498157,29.0602558 C73.3495983,29.4816989 73.1808471,30.1199524 72.9677335,30.4842028 L72.94403,30.5233461 C72.7348307,30.8878139 72.9042343,31.2029176 73.3254599,31.23271 C73.6840562,31.2583706 74.1494268,31.294252 74.669598,31.3375271 C75.3293804,31.4047232 76.1422567,31.4893162 76.8864147,31.5706474 C77.0960489,31.5984826 77.3043783,31.6258829 77.508576,31.6554579 C77.8515149,31.7026473 77.9972151,31.4332108 77.8358576,31.0448221 L77.7456105,30.8262719 C77.584253,30.4363609 77.4500784,29.7802754 77.4500784,29.3570926 L77.4524705,21.6254172 C77.452688,21.2037567 77.7960619,20.8610352 78.2172875,20.8612526 L79.714302,20.8616876 C90.9827938,20.9301884 90.3828137,12.4615312 90.3828137,12.4615312 C90.5748334,2.30514464 78.9549216,3.04799786 78.9549216,3.04799786 L77.4579071,3.04756293 Z"></path>
		<path d="M98.0546433,3.05363015 L96.3012401,3.05319522 L94.2536096,3.05254283 C94.2536096,3.05254283 94.0600676,3.05254283 93.8239029,3.05232537 C93.5879557,3.05232537 93.5344598,3.36547192 93.7016888,3.75125108 L93.946117,4.30295442 C94.1155206,4.68916851 94.2531746,5.34286194 94.2529572,5.76452247 L94.2451285,31.9007343 C94.2451285,32.323917 94.0096162,32.9143288 93.7221303,33.2237785 L93.5314153,33.4266713 C93.2441469,33.7356861 93.3461369,34.046658 93.7560545,34.1473433 C94.417794,34.3052214 95.2682914,34.5298605 95.3524495,34.5498671 C96.5206601,34.873017 102.10489,36.42244 105.716948,37.6606737 C106.11447,37.7985452 106.737501,38.0786374 107.107188,38.2793556 L107.422727,38.4489767 C107.793936,38.6496949 108.093817,38.7597311 108.093817,38.6934049 L108.093817,38.5729305 L108.095122,34.4767996 C108.095122,34.4767996 108.095122,34.1597387 108.09534,33.7676531 C108.09534,33.3760025 107.80133,33.2359564 107.443386,33.4545066 L107.277897,33.5527998 C106.917343,33.77135 106.300836,33.8341968 105.903531,33.6978475 C104.217324,33.1243979 101.73629,32.330006 99.0858523,31.6558711 C98.6757173,31.5512714 98.3436515,31.1280886 98.343869,30.7064281 L98.3469135,21.036506 C98.3469135,20.6152804 98.6870254,20.2960449 99.1108606,20.3277944 L104.236896,20.6976988 C104.656599,20.7270563 105.26854,20.9619162 105.60191,21.2200447 L105.918971,21.464038 C106.253646,21.7241236 106.5233,21.6925915 106.5233,21.3972769 L106.523518,20.8616658 L106.524823,17.0254031 L106.524823,16.5054493 C106.52504,16.2197031 106.234945,16.1666421 105.876348,16.3910638 L105.64823,16.530675 C105.289634,16.7531395 104.657904,16.9103652 104.2382,16.8864443 L99.1119479,16.5739501 C98.6881127,16.548507 98.3482182,16.1857789 98.3484357,15.7641183 L98.3506103,7.52249244 C98.3508278,7.1008319 98.6931144,6.75854532 99.1149924,6.75876279 L105.505357,6.76050249 C105.926582,6.76071995 106.560704,6.94186654 106.915169,7.16672316 L107.456869,7.5092272 C107.813508,7.73408383 108.102951,7.65927659 108.103168,7.33851884 L108.103168,6.76137234 L108.104256,3.05667463 C108.104256,3.05667463 108.104473,2.99165322 108.104473,2.90923479 C108.104473,2.82616397 107.834167,2.82616397 107.497969,2.90901733 C107.163076,2.9912183 106.549831,3.05602224 106.129475,3.05602224 L98.3521326,3.05363015 L98.0546433,3.05363015 Z"></path>
		<path d="M56.8929857,16.9750822 C56.4704553,16.9750822 56.1257767,16.6323606 56.1259941,16.2109176 L56.1283862,7.3603956 C56.1286037,6.93873507 56.4002148,6.59601356 56.7311933,6.59623103 L57.333783,6.59623103 C57.333783,6.59623103 64.2053927,6.46662315 64.918671,11.1838281 C64.9817352,11.6011393 65.0084831,12.2902792 64.9575968,12.7058508 C64.7799296,14.1141404 63.7032709,16.9770393 57.9172359,16.9752996 L56.8929857,16.9750822 Z M63.1867965,20.544083 C63.0839366,20.1341655 63.3405428,19.7107652 63.738065,19.5731112 C69.4379846,17.5915894 69.0541626,12.4551161 69.0541626,12.4551161 C69.2457474,2.29894695 57.6262706,3.0415827 57.6262706,3.0415827 L56.129691,3.04114778 L55.7158591,3.04114778 L52.0316029,3.04006046 C52.0316029,3.04006046 51.8456721,3.039843 51.6153789,3.039843 C51.3913922,3.039843 51.3437678,3.35298955 51.5131714,3.73898618 L51.7232405,4.22740782 C51.8952537,4.61144727 52.0309505,5.2675328 52.0307331,5.69071557 L52.0237742,29.0207863 C52.0237742,29.4402722 51.8996029,30.1015768 51.7452043,30.4956196 L51.6271219,30.7911516 C51.4733757,31.1847595 51.6901862,31.4685485 52.1114118,31.4331021 C53.0647691,31.3526408 54.7629368,31.2293394 56.2823499,31.2058534 C56.7042279,31.2021565 56.885592,30.9048847 56.6872658,30.5328057 L56.484373,30.1485488 C56.2827849,29.7764698 56.1220798,29.1323448 56.1222972,28.7106842 L56.1244719,21.106877 C56.1244719,20.6854339 56.469368,20.3429299 56.8921159,20.3429299 L58.3849986,20.3435822 C58.4991666,20.3435822 58.607898,20.3411902 58.7159771,20.3396679 C58.8973411,20.3353187 59.1417694,20.6608606 59.2537628,21.0662114 L59.8733146,23.2525833 C59.8733146,23.2525833 63.3720749,37.7858453 73.9918749,38.4112686 C73.9918749,38.4112686 78.28307,38.936224 78.5394588,34.9742677 C78.5679464,34.556739 78.2269646,34.3479746 77.8229186,34.4662744 C76.1641117,34.9538262 71.949681,35.6397041 68.3160936,31.585761 C68.3160936,31.585761 64.898012,27.4411359 63.1867965,20.544083 L63.1867965,20.544083 Z"></path>
		<path d="M120.211437,38.665287 L118.049638,37.4061769 C117.687127,37.1932807 117.388116,36.6791985 117.388116,36.2579729 L117.396379,8.05977799 C117.396597,7.63855238 117.739536,7.26647338 118.161196,7.27995608 C119.634073,7.31996925 122.88362,7.76989996 124.719877,10.8189471 C125.651271,12.202011 126.351066,14.3290155 126.816002,16.2257268 C127.280285,18.1243952 128.603112,27.9521954 125.307244,36.2523188 C125.307244,36.2523188 123.89765,40.560911 120.211437,38.665287 M124.82252,5.35193014 C124.062052,4.73933719 123.28223,4.27440155 122.490448,3.93320228 C121.697143,3.59048077 120.867957,3.36149235 120.009631,3.23927821 C119.170442,3.12315303 118.29972,3.06552537 117.397902,3.06161103 C117.397902,3.06161103 117.280037,3.06161103 117.134337,3.06139357 C116.988637,3.06139357 116.527833,3.06139357 116.105737,3.06117611 C114.999721,3.05856655 113.081481,3.05791417 113.081481,3.05791417 C113.081481,3.05791417 112.826832,3.05791417 112.511946,3.05791417 C112.197929,3.0576967 112.112249,3.35496847 112.324928,3.72161089 L112.700051,4.37573925 C112.911642,4.74194675 113.080611,5.38237495 113.080611,5.80360056 L113.071478,36.9558113 C113.07126,37.378994 112.842272,37.9757122 112.562832,38.2890762 L112.156611,38.735745 C111.874997,39.0488915 111.955893,39.4466311 112.341672,39.6240809 L113.700815,40.2547232 C114.531741,40.6448516 116.033757,41.3524759 117.378548,41.9689832 C117.385071,41.9731149 118.642659,42.5896222 119.462059,42.9901889 C119.840227,43.1750323 120.475654,43.4272893 120.89166,43.5123172 C127.019982,44.7625114 129.061959,38.0300779 129.061959,38.0300779 C133.516468,26.9649139 131.303131,12.254637 127.054559,7.55461171 C126.326493,6.59734009 125.582335,5.96887235 124.82252,5.35193014"></path>
		<path d="M18.5452978,4.50536888 C17.3096737,5.04859116 16.3582736,6.21614939 15.9561847,7.69881135 C15.7193676,8.56366124 15.7687317,8.56540094 15.5349591,7.69881135 C15.131348,6.21571447 14.1806003,5.04772131 12.9434539,4.50384664 C12.1240537,4.14285825 12.1240537,4.20396532 12.9434539,3.84232454 C14.1810352,3.30062449 15.1326528,2.13328372 15.5371337,0.648447144 C15.7713413,-0.216185288 15.7219772,-0.216185288 15.9583593,0.648664606 C16.3593609,2.13371865 17.3103261,3.30171181 18.5455153,3.84384678 C19.3660028,4.20613995 19.3660028,4.14503288 18.5452978,4.50536888"></path>
	</g>
</svg>