<svg xmlns="http://www.w3.org/2000/svg" xmlns:xlink="http://www.w3.org/1999/xlink" width="144" height="48" viewBox="0 0 144 48"><defs><clipPath id="b"><rect width="144" height="48"/></clipPath></defs><g id="a" clip-path="url(#b)"><path d="M32.514,1.436c.112-.217.234-.458.343-.679.207-.413.191-.748-.035-.748H27.388c-.333,0-.448.342-.262.763l.231.527a3.435,3.435,0,0,1,.221,1.588l-3.234,22.9c-.066.455-.213.466-.33.019l-3.8-14.269a2.582,2.582,0,0,1,.157-1.553l.2-.406a.479.479,0,0,0-.468-.748H14.942a.475.475,0,0,0-.465.746l.188.378a2.657,2.657,0,0,1,.177,1.556L10.508,29.59c-.109.452-.255.445-.329-.008L5.8,2.971A3.03,3.03,0,0,1,6.034,1.4L6.359.75C6.561.337,6.413,0,6.02,0H.166c-.223,0-.221.327,0,.729l.31.557a5.587,5.587,0,0,1,.535,1.552l6,38.583a6.133,6.133,0,0,1-.018,1.646l-.19,1.1c-.083.451.184.636.589.411l5.228-2.914a.779.779,0,0,0,.343-1.066,2.277,2.277,0,0,1-.2-1.466L17.509,19.08c.106-.447.282-.449.394,0l4.219,16.751a5.04,5.04,0,0,1,.087,1.635l-.026.178c-.066.455.238.707.68.561l5.048-1.676a.617.617,0,0,0,.343-.967l-.031-.05a2.633,2.633,0,0,1-.342-1.53L32.011,3a5.815,5.815,0,0,1,.5-1.564" transform="translate(0 3.327)" fill="#fff"/><path d="M.409,35.092a.4.4,0,0,1-.341-.151.526.526,0,0,1-.024-.479l.125-.371a14.872,14.872,0,0,0,.444-1.618L6.76,2.6A3.133,3.133,0,0,0,6.593,1.01L6.484.769A.7.7,0,0,1,6.459.133.3.3,0,0,1,6.723,0H7.3l5.6,0h.689a.388.388,0,0,1,.347.168A.614.614,0,0,1,13.9.756l-.174.348a2.7,2.7,0,0,0-.169,1.573L20.02,29.093a5.707,5.707,0,0,0,.67,1.515l.1.145a.485.485,0,0,1-.36.817l-4.324.62a.839.839,0,0,1-.122.009.542.542,0,0,1-.435-.188.607.607,0,0,1-.093-.52l.022-.1a4.571,4.571,0,0,0,0-1.642L14.9,27.093a1.552,1.552,0,0,0-.985-1.058L7.775,24.224a.82.82,0,0,0-.226-.032.748.748,0,0,0-.738.622L5.552,31.483a2.573,2.573,0,0,0,.273,1.547l0,.014a.611.611,0,0,1,.065.562.619.619,0,0,1-.455.348L.6,35.069A.826.826,0,0,1,.409,35.092Zm9.95-28.531c-.063,0-.121.122-.164.344L7.939,18.842a.91.91,0,0,0,.66,1.036l4.2,1.075a.788.788,0,0,0,.2.027.443.443,0,0,0,.359-.155.568.568,0,0,0,.08-.483L10.529,6.9C10.482,6.682,10.422,6.562,10.359,6.562Z" transform="translate(32.484 3.339)" fill="#fff"/><path d="M5.368,31.487a.61.61,0,0,1-.083-.006c-.191-.028-.39-.054-.581-.079l-.1-.014c-.68-.075-1.5-.161-2.438-.257-.548-.046-1.059-.086-1.479-.115a.545.545,0,0,1-.471-.254.539.539,0,0,1,.051-.526l.026-.043a3.666,3.666,0,0,0,.42-1.566L.717,3.02A4.667,4.667,0,0,0,.38,1.411L.108.78A.775.775,0,0,1,.055.109a.212.212,0,0,1,.186-.1H6.876S7.09,0,7.447,0A17.985,17.985,0,0,1,11.7.521a10.961,10.961,0,0,1,5.263,2.818,9.374,9.374,0,0,1,2.488,7.03A8.762,8.762,0,0,1,17.2,16.385c-1.993,2.139-5.135,3.224-9.338,3.224h-1.8a.843.843,0,0,0-.841.841l0,8.5a5.036,5.036,0,0,0,.326,1.616l.1.24a.591.591,0,0,1,.013.541A.329.329,0,0,1,5.368,31.487ZM5.889,3.927a.768.768,0,0,0-.661.841l0,10.128a.842.842,0,0,0,.841.841H7.153c3,0,5.19-.743,6.509-2.21a5.244,5.244,0,0,0,1.3-3.722c-.056-5.712-7.5-5.877-8.353-5.877h-.72Z" transform="translate(79.553 3.34)" fill="#fff"/><path d="M5.155.225H.5C.242.224.183.565.367.986l.269.6A4.674,4.674,0,0,1,.973,3.18L.965,31.663a2.429,2.429,0,0,1-.575,1.442l-.21.221c-.316.337-.2.676.247.785.728.172,1.663.417,1.756.439,1.285.352,7.428,2.041,11.4,3.39a12.425,12.425,0,0,1,1.529.674l.347.185c.408.219.738.339.738.266v-4.6s0-.346,0-.773-.323-.579-.717-.341l-.182.107a2.053,2.053,0,0,1-1.512.158C11.934,33,9.205,32.131,6.29,31.4a1.125,1.125,0,0,1-.816-1.035l0-10.538a.767.767,0,0,1,.84-.772l5.639.4a3.272,3.272,0,0,1,1.5.569l.349.266c.368.283.665.249.665-.073V14.885c0-.311-.319-.369-.713-.125l-.251.152a3.13,3.13,0,0,1-1.551.388L6.318,14.96a.9.9,0,0,1-.84-.883l0-8.982a.837.837,0,0,1,.841-.832l7.029,0a3.44,3.44,0,0,1,1.551.443l.6.373c.392.245.711.164.711-.186V.229s0-.071,0-.161-.3-.091-.667,0a7.719,7.719,0,0,1-1.505.16l-8.555,0Z" transform="translate(102.177 3.132)" fill="#fff"/><path d="M25.376,38.58a5.013,5.013,0,0,1-.538-.025,12.92,12.92,0,0,1-7.355-2.868,20.569,20.569,0,0,1-4.791-5.646,32.644,32.644,0,0,1-3.385-8l-.681-2.382c-.122-.437-.385-.792-.588-.792H7.95c-.091,0-.183,0-.279,0H6.03a.84.84,0,0,0-.845.833l0,8.285a3.859,3.859,0,0,0,.4,1.567l.223.418a.515.515,0,0,1,.035.515.535.535,0,0,1-.481.219c-1.8.027-3.809.182-4.587.248q-.039,0-.076,0a.509.509,0,0,1-.439-.193.537.537,0,0,1-.018-.51l.13-.322a5.219,5.219,0,0,0,.306-1.607L.682,2.9A4.611,4.611,0,0,0,.343,1.305L.112.773A.777.777,0,0,1,.053.1.2.2,0,0,1,.225.011H6.837c.009,0,.22-.013.571-.013a18.146,18.146,0,0,1,4.248.516,10.993,10.993,0,0,1,5.263,2.791,9.236,9.236,0,0,1,2.488,6.964A7.714,7.714,0,0,1,17.118,15.9a9.344,9.344,0,0,1-3.559,2.123.905.905,0,0,0-.607,1.058A33.022,33.022,0,0,0,18.6,31.117a10.034,10.034,0,0,0,7.586,3.546,10.409,10.409,0,0,0,2.872-.407.863.863,0,0,1,.241-.036.556.556,0,0,1,.412.162.55.55,0,0,1,.135.428C29.619,38.212,26.645,38.58,25.376,38.58ZM5.852,3.886a.764.764,0,0,0-.663.833l0,9.645a.839.839,0,0,0,.844.833H7.163c2.768,0,4.847-.589,6.181-1.751a4.561,4.561,0,0,0,1.557-2.9,7.337,7.337,0,0,0-.042-1.659c-.742-4.859-7.515-5-8.285-5H5.852Z" transform="translate(56.227 3.333)" fill="#fff"/><path d="M11.414,44.306a8.284,8.284,0,0,1-1.621-.17,8.034,8.034,0,0,1-1.572-.57c-.882-.427-2.282-1.108-2.292-1.114-1.347-.613-2.813-1.3-3.784-1.748l-.262-.122L.388,39.894a.623.623,0,0,1-.377-.429.615.615,0,0,1,.173-.54l.446-.487a2.516,2.516,0,0,0,.56-1.454L1.2,3A3.647,3.647,0,0,0,.782,1.438L.37.724A.609.609,0,0,1,.284.143.313.313,0,0,1,.575,0H1.2s2.11,0,3.327,0H5.95A21.8,21.8,0,0,1,8.823.2a10.714,10.714,0,0,1,2.729.757A11.107,11.107,0,0,1,14.116,2.5a13.47,13.47,0,0,1,2.455,2.4,16.169,16.169,0,0,1,3.006,5.661,38.031,38.031,0,0,1,1.688,8.36A41.738,41.738,0,0,1,18.78,38.155a11.266,11.266,0,0,1-1.626,3.075,8.222,8.222,0,0,1-2.275,2.114,6.568,6.568,0,0,1-3.464.961h0ZM6.766,4.606a.846.846,0,0,0-.818.851L5.939,36.222a1.609,1.609,0,0,0,.727,1.252l2.379,1.374A4.334,4.334,0,0,0,11,39.374c2.579,0,3.64-3.127,3.65-3.158,3.583-8.952,2.2-19.675,1.66-21.849A19.9,19.9,0,0,0,14,8.468,8.6,8.6,0,0,0,6.789,4.606Z" transform="translate(122.528 3.364)" fill="#fff"/><path d="M6.838,4.956A5.251,5.251,0,0,0,3.99,8.469c-.26.951-.206.953-.463,0A5.258,5.258,0,0,0,.676,4.954c-.9-.4-.9-.33,0-.728A5.25,5.25,0,0,0,3.529.713c.258-.951.2-.951.463,0A5.241,5.241,0,0,0,6.838,4.228c.9.4.9.331,0,.728" transform="translate(13.562)" fill="#fff"/></g></svg>